<?xml version="1.0" encoding="UTF-8"?>
<svg version="1.1" xmlns="http://www.w3.org/2000/svg" width="512" height="512">
<path d="M0 0 C1.44403931 -0.00600229 2.88807546 -0.01281166 4.33210754 -0.02035522 C8.21700607 -0.03785644 12.10181622 -0.04270401 15.98675036 -0.0439868 C18.42711512 -0.04541882 20.86745815 -0.04970819 23.30781746 -0.05498123 C31.85952274 -0.07343392 40.4111661 -0.08165845 48.96289062 -0.08007812 C56.87162109 -0.07888026 64.78007712 -0.09992505 72.68873829 -0.13156545 C79.52836624 -0.15793089 86.36790574 -0.16843693 93.20758396 -0.16716731 C97.27037402 -0.16666328 101.33292012 -0.17202903 105.39565849 -0.19352341 C156.25572716 -0.44388882 200.79905593 13.9159948 237.75317383 49.89648438 C247.53618532 59.7309854 256.17245268 70.71116586 262.79125977 82.91552734 C265.39295369 87.60608129 267.65877952 89.63822537 272.32250977 92.12255859 C275.69608617 94.33461856 276.73742703 97.62240586 278.10375977 101.29052734 C278.54848633 102.46486328 278.99321289 103.63919922 279.45141602 104.84912109 C283.10375977 114.71488014 283.10375977 114.71488014 283.10375977 117.29052734 C284.05250977 117.22865234 285.00125977 117.16677734 285.97875977 117.10302734 C294.57122682 117.1551029 301.93642028 120.40111517 308.10375977 126.29052734 C315.53614464 134.56524917 316.42471225 141.90465341 316.47485352 152.77490234 C316.48388199 153.98567444 316.49291046 155.19644653 316.50221252 156.44390869 C316.51669849 159.00245702 316.52559764 161.56104225 316.52929688 164.11962891 C316.54117631 168.01317546 316.59036874 171.90512819 316.64086914 175.79833984 C316.65033608 178.29051965 316.65756982 180.78270915 316.66235352 183.27490234 C316.68188583 184.4293988 316.70141815 185.58389526 316.72154236 186.77337646 C316.67281703 195.60045149 314.66276583 202.91367492 308.35375977 209.35302734 C307.24000977 210.31208984 307.24000977 210.31208984 306.10375977 211.29052734 C304.8729378 212.29739858 304.8729378 212.29739858 305.00369263 214.34402466 C305.02059647 215.70223831 305.02059647 215.70223831 305.0378418 217.08789062 C305.05247971 218.628134 305.05247971 218.628134 305.06741333 220.19949341 C305.089272 221.88810989 305.089272 221.88810989 305.11157227 223.61083984 C305.12913599 226.00927277 305.14603949 228.4077106 305.16235352 230.80615234 C305.19290264 234.57484782 305.22785325 238.34329204 305.27514648 242.11181641 C305.5199985 262.70689678 304.49297363 282.74256126 299.41625977 302.79052734 C299.03062866 304.33667725 299.03062866 304.33667725 298.63720703 305.9140625 C285.66196009 356.34382904 256.43341743 404.0869616 215.10375977 436.29052734 C213.84828867 437.29801249 212.59309877 438.30584811 211.33813477 439.31396484 C168.31899084 473.48060847 115.13770785 490.82173565 60.47875977 490.60302734 C59.50820648 490.60087219 58.5376532 490.59871704 57.53768921 490.59649658 C43.20945079 490.54546074 29.18190195 490.19811173 15.10375977 487.29052734 C13.62915283 486.99251221 13.62915283 486.99251221 12.12475586 486.68847656 C-43.26967446 475.16774678 -95.82540567 445.2483525 -130.89624023 400.29052734 C-131.68514648 399.30697266 -132.47405273 398.32341797 -133.28686523 397.31005859 C-151.39229254 374.55192001 -164.6844585 348.83017882 -173.89624023 321.29052734 C-174.15872559 320.50742187 -174.42121094 319.72431641 -174.69165039 318.91748047 C-177.34933117 310.82436758 -179.3634766 302.63071257 -181.08374023 294.29052734 C-181.31637573 293.17145996 -181.31637573 293.17145996 -181.55371094 292.02978516 C-182.05453973 289.45658961 -182.48447191 286.87953431 -182.89624023 284.29052734 C-183.08226807 283.16291992 -183.2682959 282.0353125 -183.45996094 280.87353516 C-185.61629777 265.72759035 -184.94876381 250.48972509 -184.62890625 235.23242188 C-184.55657659 231.55902367 -184.51527409 227.88630218 -184.47827148 224.21240234 C-184.44619095 223.08848083 -184.41411041 221.96455933 -184.38105774 220.80657959 C-184.25765587 214.50814609 -184.25765587 214.50814609 -187.32568359 209.17871094 C-188.17396729 208.55561035 -189.02225098 207.93250977 -189.89624023 207.29052734 C-191.44311523 205.15771484 -191.44311523 205.15771484 -192.64624023 203.16552734 C-193.05358398 202.50294922 -193.46092773 201.84037109 -193.88061523 201.15771484 C-195.77155399 197.68129667 -196.03345013 194.83678913 -196.07324219 190.95214844 C-196.08607742 189.86026215 -196.09891266 188.76837585 -196.11213684 187.6434021 C-196.11952377 186.46218781 -196.12691071 185.28097351 -196.13452148 184.06396484 C-196.14259323 182.84657623 -196.15066498 181.62918762 -196.15898132 180.37490845 C-196.17282356 177.79422429 -196.18354508 175.21352181 -196.19140625 172.6328125 C-196.20858108 168.7019535 -196.25246365 164.77194374 -196.29663086 160.84130859 C-196.30676124 158.33220019 -196.31527626 155.82308463 -196.32202148 153.31396484 C-196.33952957 152.14489594 -196.35703766 150.97582703 -196.37507629 149.77133179 C-196.34868067 139.74926279 -193.7985136 132.46868243 -186.95874023 125.08349609 C-179.86724696 118.91873205 -172.07399057 117.11057145 -162.89624023 117.29052734 C-162.6584082 116.41654297 -162.6584082 116.41654297 -162.41577148 115.52490234 C-156.73039942 95.54757287 -156.73039942 95.54757287 -149.89624023 90.29052734 C-149.26975586 90.06107422 -148.64327148 89.83162109 -147.99780273 89.59521484 C-144.86580228 87.65081307 -143.56048948 84.68858764 -141.83374023 81.54052734 C-120.71501758 44.85343057 -83.60316502 17.09208768 -42.91967773 5.89208984 C-28.60560894 2.12389623 -14.8419986 -0.01251166 0 0 Z " fill="#30D5CE" transform="translate(195.896240234375,10.70947265625)"/>
<path d="M0 0 C1.44403931 -0.00600229 2.88807546 -0.01281166 4.33210754 -0.02035522 C8.21700607 -0.03785644 12.10181622 -0.04270401 15.98675036 -0.0439868 C18.42711512 -0.04541882 20.86745815 -0.04970819 23.30781746 -0.05498123 C31.85952274 -0.07343392 40.4111661 -0.08165845 48.96289062 -0.08007812 C56.87162109 -0.07888026 64.78007712 -0.09992505 72.68873829 -0.13156545 C79.52836624 -0.15793089 86.36790574 -0.16843693 93.20758396 -0.16716731 C97.27037402 -0.16666328 101.33292012 -0.17202903 105.39565849 -0.19352341 C156.25572716 -0.44388882 200.79905593 13.9159948 237.75317383 49.89648438 C247.53618532 59.7309854 256.17245268 70.71116586 262.79125977 82.91552734 C265.39295369 87.60608129 267.65877952 89.63822537 272.32250977 92.12255859 C275.69608617 94.33461856 276.73742703 97.62240586 278.10375977 101.29052734 C278.54848633 102.46486328 278.99321289 103.63919922 279.45141602 104.84912109 C283.10375977 114.71488014 283.10375977 114.71488014 283.10375977 117.29052734 C284.05250977 117.22865234 285.00125977 117.16677734 285.97875977 117.10302734 C294.57122682 117.1551029 301.93642028 120.40111517 308.10375977 126.29052734 C315.53614464 134.56524917 316.42471225 141.90465341 316.47485352 152.77490234 C316.48388199 153.98567444 316.49291046 155.19644653 316.50221252 156.44390869 C316.51669849 159.00245702 316.52559764 161.56104225 316.52929688 164.11962891 C316.54117631 168.01317546 316.59036874 171.90512819 316.64086914 175.79833984 C316.65033608 178.29051965 316.65756982 180.78270915 316.66235352 183.27490234 C316.68188583 184.4293988 316.70141815 185.58389526 316.72154236 186.77337646 C316.67168208 195.80605935 314.48426548 202.31843313 308.60375977 209.22802734 C298.07276661 217.91609669 287.15983756 218.88026235 274.10375977 218.29052734 C274.13518066 219.37769043 274.13518066 219.37769043 274.16723633 220.48681641 C274.25146672 223.83790662 274.30275481 227.18877305 274.35375977 230.54052734 C274.38727539 231.68005859 274.42079102 232.81958984 274.45532227 233.99365234 C274.59869291 246.6102687 271.20149651 257.65217675 262.51391602 267.00146484 C252.00527477 276.74359344 239.77388888 278.59269815 226.00585938 278.54589844 C224.01515281 278.55145572 222.02444625 278.55701734 220.03374016 278.56274247 C217.90768639 278.56706503 215.7816795 278.56661741 213.65562248 278.56492233 C209.21294088 278.56207486 204.77041643 278.57649328 200.32777405 278.59390259 C187.69965951 278.64079683 175.07155721 278.66487382 162.44335938 278.67138672 C155.45796496 278.6751413 148.47275002 278.69319723 141.48743254 278.72648108 C137.07529565 278.74664788 132.66362303 278.74908953 128.251459 278.7382009 C124.85829129 278.73497352 121.46538168 278.75770043 118.07226562 278.77636719 C116.24937012 278.76410851 116.24937012 278.76410851 114.38964844 278.75160217 C107.50628771 278.81901032 103.86698349 279.64905778 98.10375977 283.29052734 C94.43055725 283.80519104 94.43055725 283.80519104 90.45947266 283.82397461 C89.73002945 283.83259018 89.00058624 283.84120575 88.2490387 283.8500824 C85.8577948 283.87263003 83.46773367 283.86602469 81.07641602 283.85693359 C79.40164343 283.86217437 77.7268738 283.86845251 76.05210876 283.87571716 C72.54940866 283.8861008 69.04711531 283.88158975 65.54443359 283.86694336 C61.07102422 283.84976257 56.5989002 283.87325179 52.12563419 283.90843296 C48.66901755 283.93046711 45.21270559 283.92895098 41.75604057 283.92066765 C40.10752389 283.91985133 38.45898411 283.92665326 36.81053352 283.94143867 C21.32600221 284.05904302 21.32600221 284.05904302 15.49461365 279.7283783 C11.45177756 275.54893443 9.89313615 271.17617357 9.79125977 265.41552734 C9.87380341 262.9218405 9.98240644 261.53323399 11.10375977 259.29052734 C10.39469482 259.31147461 9.68562988 259.33242188 8.95507812 259.35400391 C-13.70451222 259.93450091 -34.95570604 257.91691648 -52.39624023 241.91552734 C-61.11009893 233.5051867 -67.7609595 224.76328056 -71.89624023 213.29052734 C-72.24041992 212.41783203 -72.58459961 211.54513672 -72.93920898 210.64599609 C-76.72572653 199.66374769 -76.50358851 188.71467554 -76.41772461 177.21386719 C-76.39628269 173.79729228 -76.4176079 170.38281972 -76.44311523 166.96630859 C-76.45835997 155.4580019 -76.22608724 145.10229958 -71.89624023 134.29052734 C-71.61925293 133.56752441 -71.34226562 132.84452148 -71.05688477 132.09960938 C-64.35056304 115.88732238 -52.37203276 103.81201335 -36.89624023 95.91552734 C-36.26838623 95.59366455 -35.64053223 95.27180176 -34.99365234 94.94018555 C-24.40651682 89.82322793 -14.228481 88.84357888 -2.58105469 88.87060547 C-1.06845988 88.86324999 0.44412935 88.8546595 1.95671082 88.84494019 C6.03556647 88.8228665 10.11421927 88.81978649 14.19312644 88.8216877 C17.61448513 88.8218081 21.03580193 88.81321532 24.45714885 88.80491018 C32.53982085 88.78572548 40.62238961 88.78277361 48.70507812 88.78955078 C57.00362383 88.79618186 65.30172397 88.77335355 73.60017937 88.73623705 C80.75900418 88.70539647 87.91768675 88.69419566 95.07657653 88.69807386 C99.33709876 88.70012728 103.59727432 88.69488324 107.85773277 88.67018127 C111.87093849 88.64767864 115.88342789 88.64998348 119.89663887 88.6701088 C121.35574797 88.67347824 122.81490756 88.66860908 124.27394867 88.65412521 C143.16574065 88.4797729 160.92912983 94.75870023 174.85107422 107.8203125 C188.16452012 121.01574325 196.26913548 138.35860262 196.57189941 157.16790771 C196.57220154 158.70587006 196.57220154 158.70587006 196.57250977 160.27490234 C196.58012329 161.37417053 196.58773682 162.47343872 196.59558105 163.60601807 C196.60630839 165.91521961 196.60926548 168.22446938 196.60473633 170.53369141 C196.60376588 174.01858661 196.64543929 177.50126218 196.68969727 180.98583984 C196.75731484 193.6786885 196.03357364 204.49799347 191.10375977 216.29052734 C190.41950928 217.95740601 190.41950928 217.95740601 189.72143555 219.65795898 C186.12759449 227.99439932 180.46313454 233.99529612 174.10375977 240.29052734 C173.45665039 240.95955078 172.80954102 241.62857422 172.14282227 242.31787109 C165.68367286 248.53727042 156.58427244 253.46368978 148.10375977 256.29052734 C157.85648281 256.61579548 167.6079048 256.86408659 177.36495876 257.01589775 C181.89662948 257.08878945 186.42457545 257.18750455 190.95410156 257.34667969 C195.33111213 257.49952138 199.70455816 257.58263804 204.08403206 257.61880875 C205.74902571 257.64455716 207.41383685 257.69485278 209.07729912 257.77074814 C217.91520383 258.39124235 217.91520383 258.39124235 225.68403244 254.92304039 C228.91288556 251.09135315 231.01852299 246.81932325 233.10375977 242.29052734 C233.91601605 240.76807476 234.73194144 239.24754919 235.55688477 237.73193359 C236.16874381 236.44501954 236.76808069 235.15206518 237.35375977 233.85302734 C237.67820068 233.14621826 238.0026416 232.43940918 238.33691406 231.71118164 C253.28753075 198.41529196 254.81746823 159.73653774 242.12280273 125.52734375 C241.45557731 123.7795174 240.78023561 122.03479429 240.10375977 120.29052734 C239.77375977 119.30052734 239.44375977 118.31052734 239.10375977 117.29052734 C242.73375977 117.29052734 246.36375977 117.29052734 250.10375977 117.29052734 C249.60875977 116.01177734 249.11375977 114.73302734 248.60375977 113.41552734 C247.37687066 109.85144226 247.05509054 107.27464981 247.41625977 103.54052734 C247.62935493 96.28407631 243.19457711 90.94356025 239.10375977 85.29052734 C238.69738281 84.72865723 238.29100586 84.16678711 237.87231445 83.58789062 C230.54329651 73.5830626 222.75373328 64.13829868 213.10375977 56.29052734 C212.16918945 55.51837891 211.23461914 54.74623047 210.27172852 53.95068359 C177.1477833 27.16340234 138.63619436 20.73464471 97.08249426 20.95341396 C93.57511721 20.96879948 90.06773838 20.96728379 86.56033325 20.96807861 C80.68933742 20.97173258 74.81846123 20.98650881 68.94750977 21.00927734 C61.45453861 21.03828071 53.96166251 21.04852151 46.46864128 21.05295944 C39.95499369 21.05696157 33.44136598 21.0694444 26.92773294 21.08330631 C24.86538521 21.0873641 22.80303812 21.09030992 20.74068832 21.0931015 C16.8784402 21.10003649 13.01627405 21.11369878 9.15405273 21.12939453 C7.47674324 21.13107132 7.47674324 21.13107132 5.76554871 21.13278198 C-5.23913373 21.19151008 -16.30149153 21.56723129 -27.08374023 23.91552734 C-27.87780273 24.08810059 -28.67186523 24.26067383 -29.48999023 24.43847656 C-54.59844592 30.21638694 -78.18187324 42.6761152 -96.81030273 60.47802734 C-98.89624023 62.29052734 -98.89624023 62.29052734 -101.04467773 63.29052734 C-103.44054543 64.58449808 -103.74247357 65.8557726 -104.89624023 68.29052734 C-106.34228828 69.88372705 -107.82687095 71.44222617 -109.33374023 72.97802734 C-113.76334077 77.75631363 -117.42417537 82.75777014 -120.95874023 88.22802734 C-121.43561279 88.96174561 -121.91248535 89.69546387 -122.40380859 90.45141602 C-125.38059665 95.15277794 -127.00318027 98.22302 -126.70874023 103.91552734 C-126.59785814 109.25802809 -128.75314008 113.46855199 -130.89624023 118.29052734 C-127.26624023 118.29052734 -123.63624023 118.29052734 -119.89624023 118.29052734 C-120.28811523 119.56927734 -120.67999023 120.84802734 -121.08374023 122.16552734 C-121.68920524 124.20680936 -122.29314298 126.24854452 -122.89624023 128.29052734 C-123.09443359 128.94472656 -123.29262695 129.59892578 -123.49682617 130.27294922 C-132.4048133 159.80353669 -131.45039905 188.5324386 -123.89624023 218.29052734 C-130.5122389 218.41834668 -137.12791387 218.5053014 -143.74487305 218.56518555 C-145.99108784 218.59017573 -148.23722259 218.62417969 -150.4831543 218.66772461 C-177.37372559 219.17565762 -177.37372559 219.17565762 -188.89624023 209.29052734 C-190.66186523 206.81787109 -190.66186523 206.81787109 -192.14624023 204.22802734 C-192.64639648 203.37080078 -193.14655273 202.51357422 -193.66186523 201.63037109 C-195.61492619 197.92820808 -196.03097432 195.07848697 -196.07324219 190.95214844 C-196.08607742 189.86026215 -196.09891266 188.76837585 -196.11213684 187.6434021 C-196.11952377 186.46218781 -196.12691071 185.28097351 -196.13452148 184.06396484 C-196.14259323 182.84657623 -196.15066498 181.62918762 -196.15898132 180.37490845 C-196.17282356 177.79422429 -196.18354508 175.21352181 -196.19140625 172.6328125 C-196.20858108 168.7019535 -196.25246365 164.77194374 -196.29663086 160.84130859 C-196.30676124 158.33220019 -196.31527626 155.82308463 -196.32202148 153.31396484 C-196.33952957 152.14489594 -196.35703766 150.97582703 -196.37507629 149.77133179 C-196.34868067 139.74926279 -193.7985136 132.46868243 -186.95874023 125.08349609 C-179.86724696 118.91873205 -172.07399057 117.11057145 -162.89624023 117.29052734 C-162.6584082 116.41654297 -162.6584082 116.41654297 -162.41577148 115.52490234 C-156.73039942 95.54757287 -156.73039942 95.54757287 -149.89624023 90.29052734 C-149.26975586 90.06107422 -148.64327148 89.83162109 -147.99780273 89.59521484 C-144.86580228 87.65081307 -143.56048948 84.68858764 -141.83374023 81.54052734 C-120.71501758 44.85343057 -83.60316502 17.09208768 -42.91967773 5.89208984 C-28.60560894 2.12389623 -14.8419986 -0.01251166 0 0 Z " fill="#0088CB" transform="translate(195.896240234375,10.70947265625)"/>
<path d="M0 0 C1.39067718 -0.00463655 2.7813531 -0.00966231 4.17202759 -0.01504517 C7.93297264 -0.02809656 11.69389989 -0.03460065 15.45486403 -0.03905582 C17.8135867 -0.04200025 20.17230466 -0.04610769 22.53102493 -0.05056 C29.93672643 -0.06422006 37.34241698 -0.07389221 44.7481302 -0.07776189 C53.24791634 -0.08222956 61.74754063 -0.09972344 70.24727762 -0.12876248 C76.84809351 -0.15051714 83.44886435 -0.16047356 90.04971564 -0.16180301 C93.97716053 -0.16284187 97.904453 -0.16854957 101.83185959 -0.18662262 C121.72650839 -0.2729506 140.78805143 -0.13774908 159.72119141 6.78613281 C160.68444336 7.13095703 161.64769531 7.47578125 162.64013672 7.83105469 C175.96393435 12.7540101 188.03161952 19.30384706 199.15869141 28.16113281 C200.08166016 28.88171875 201.00462891 29.60230469 201.95556641 30.34472656 C216.35623932 41.82150594 232.11319012 57.71647163 239.15869141 75.16113281 C238.72029324 78.38787222 237.66916933 80.02725238 235.38525391 82.29785156 C234.81379639 82.87027588 234.24233887 83.4427002 233.65356445 84.0324707 C233.03650635 84.6318042 232.41944824 85.2311377 231.78369141 85.84863281 C230.82813354 86.78727173 230.82813354 86.78727173 229.85327148 87.74487305 C224.54540249 92.90110765 219.01113638 97.63118839 213.15869141 102.16113281 C211.90548768 103.16559356 210.65292861 104.17085895 209.40087891 105.17675781 C166.38825887 139.35299483 113.19141125 156.6923362 58.53369141 156.47363281 C57.56313812 156.47147766 56.59258484 156.46932251 55.59262085 156.46710205 C41.26438243 156.41606621 27.23683359 156.0687172 13.15869141 153.16113281 C11.68408447 152.86311768 11.68408447 152.86311768 10.1796875 152.55908203 C-36.25534671 142.90169448 -76.92505604 120.99048681 -111.84130859 89.16113281 C-112.41413574 88.64035156 -112.98696289 88.11957031 -113.57714844 87.58300781 C-115.18327538 86.10602374 -116.76641799 84.60881244 -118.34130859 83.09863281 C-119.68708984 81.81279297 -119.68708984 81.81279297 -121.06005859 80.50097656 C-122.84130859 78.16113281 -122.84130859 78.16113281 -122.80615234 76.19238281 C-107.79695062 44.59406338 -78.47688957 19.80995896 -45.94677734 7.65332031 C-30.67355479 2.25874855 -16.11024768 0.01396624 0 0 Z " fill="#BFFAFE" transform="translate(197.84130859375,344.8388671875)"/>
<path d="M0 0 C2.09589725 -0.00389543 4.19179373 -0.00823182 6.28768921 -0.01298523 C10.67017174 -0.0204202 15.05257369 -0.02017693 19.43505859 -0.01489258 C25.00570249 -0.00911558 30.57601199 -0.02599962 36.14660072 -0.04923725 C40.47421138 -0.06409204 44.80174381 -0.06483022 49.12937546 -0.06172752 C51.18073562 -0.06223532 53.23210081 -0.06736915 55.28343582 -0.07753944 C70.7676234 -0.14487224 85.7916872 0.76671651 100.5234375 5.98828125 C101.25925049 6.24319336 101.99506348 6.49810547 102.75317383 6.76074219 C138.31593653 19.45549957 167.6287591 45.03939674 184.4375 78.98291016 C193.42320042 98.16237053 197.75509736 118.10235856 197.7734375 139.23828125 C197.77411224 139.93463684 197.77478699 140.63099243 197.77548218 141.34844971 C197.75960839 151.64860684 197.27359104 161.29419849 194.5234375 171.30078125 C194.35183105 171.97141602 194.18022461 172.64205078 194.00341797 173.33300781 C189.89244369 189.37278772 183.39351886 204.30982817 174.5234375 218.30078125 C173.98330017 219.17570724 173.44316284 220.05063324 172.88665771 220.95207214 C170.20653202 223.61574081 168.72983412 223.88475753 165.01231384 223.92288208 C164.2879866 223.9049057 163.56365936 223.88692932 162.81738281 223.8684082 C162.04626663 223.86913834 161.27515045 223.86986847 160.48066711 223.87062073 C157.93691165 223.86714274 155.39499721 223.82827461 152.8515625 223.7890625 C151.08609009 223.77973505 149.32060473 223.77261862 147.55511475 223.7676239 C142.91217206 223.74854856 138.27001357 223.69944348 133.62738037 223.644104 C128.88841358 223.59292288 124.14931986 223.57011231 119.41015625 223.54492188 C110.1142391 223.491325 100.81890355 223.40600592 91.5234375 223.30078125 C94.28819457 221.45760987 97.0823015 220.02539987 100.07006836 218.58618164 C106.70130749 215.37907876 113.00166887 212.25466558 118.5234375 207.30078125 C119.24660156 206.66914063 119.96976562 206.0375 120.71484375 205.38671875 C131.25473356 195.57802265 136.67329478 183.90021241 140.5234375 170.30078125 C140.70355881 169.67738358 140.88368011 169.0539859 141.06925964 168.41169739 C141.5882761 165.9994261 141.6725061 163.77894484 141.70043945 161.3112793 C141.71327469 160.31891769 141.72610992 159.32655609 141.73933411 158.30412292 C141.74672104 157.23438736 141.75410797 156.16465179 141.76171875 155.0625 C141.7697905 153.94954056 141.77786224 152.83658112 141.78617859 151.68989563 C141.80001208 149.32867993 141.81073752 146.96744429 141.81860352 144.60620117 C141.83006544 142.21388812 141.85042398 139.82159946 141.88012695 137.42944336 C142.19407951 112.13258487 138.46069995 93.30681475 120.54296875 74.1875 C106.40265304 60.5247184 88.05022762 55.67135257 68.86767578 55.76733398 C67.35463631 55.76025516 65.8416039 55.751502 64.32858276 55.7412262 C60.26223297 55.7189406 56.19627619 55.7216227 52.12988901 55.73054767 C48.71582749 55.73569989 45.30183711 55.72833089 41.88778293 55.72107559 C33.82372415 55.70414226 25.7598549 55.70757525 17.69580078 55.72436523 C9.41932939 55.74127638 1.14338586 55.72545105 -7.13302791 55.69314235 C-14.27918796 55.66631866 -21.425185 55.65920481 -28.57139027 55.66765743 C-32.82178988 55.67255006 -37.07187242 55.67057265 -41.32223129 55.64986992 C-45.32319094 55.63131044 -49.32340068 55.63771391 -53.32432175 55.66206932 C-54.77858623 55.66701399 -56.23290992 55.6637562 -57.68712616 55.65092087 C-77.68949833 55.488566 -94.84441525 62.62775341 -109.4765625 76.30078125 C-114.69055637 81.63581427 -118.39222614 87.5864354 -121.7890625 94.17578125 C-122.11479248 94.79912354 -122.44052246 95.42246582 -122.77612305 96.06469727 C-127.44466226 105.59240265 -128.94319501 115.51508918 -128.9453125 126.03125 C-128.95292603 127.10595047 -128.96053955 128.18065094 -128.96838379 129.28791809 C-128.97910955 131.54584451 -128.98206887 133.80382023 -128.97753906 136.06176758 C-128.97656963 139.46327166 -129.01822343 142.86249365 -129.0625 146.26367188 C-129.18671901 168.90387875 -124.48412443 188.18862367 -108.1484375 204.71875 C-89.39472691 222.84185337 -67.41363528 224.79539438 -42.4765625 225.30078125 C-42.49468994 226.04336182 -42.51281738 226.78594238 -42.53149414 227.55102539 C-42.54559326 228.53192139 -42.55969238 229.51281738 -42.57421875 230.5234375 C-42.59234619 231.49289307 -42.61047363 232.46234863 -42.62915039 233.46118164 C-42.4048802 237.63476014 -41.26791875 241.15963098 -38.4765625 244.30078125 C-33.36522614 247.7053378 -30.08891912 248.80316191 -23.81640625 248.81835938 C-23.08535675 248.82536865 -22.35430725 248.83237793 -21.60110474 248.83959961 C-19.20502778 248.85708257 -16.81014967 248.84559255 -14.4140625 248.83203125 C-12.7368955 248.83472898 -11.05973003 248.83861374 -9.38256836 248.84362793 C-5.87566162 248.84950981 -2.36916372 248.84100267 1.13769531 248.82226562 C5.62002612 248.79947653 10.10139875 248.8126067 14.58369446 248.83655548 C18.04454697 248.85104916 21.50517444 248.84639121 24.96603394 248.83604431 C26.61815506 248.83338687 28.270297 248.83661204 29.9223938 248.84596252 C32.23656892 248.85618766 34.54921896 248.84054652 36.86328125 248.81835938 C38.17675537 248.815177 39.49022949 248.81199463 40.84350586 248.80871582 C44.55486336 248.29644359 46.50538877 247.16230194 49.62654305 245.20361328 C53.35630318 243.42842389 57.35262324 243.78195067 61.40600586 243.84667969 C62.85594437 243.84580353 62.85594437 243.84580353 64.33517456 243.84490967 C67.51158288 243.84768337 70.68703805 243.87874219 73.86328125 243.91015625 C76.07287585 243.91762116 78.28247709 243.92331291 80.49208069 243.92730713 C86.2938175 243.94254363 92.09515065 243.98180877 97.89672852 244.02612305 C103.82237284 244.06711833 109.74808271 244.08532726 115.67382812 244.10546875 C127.29054146 244.14830459 138.90695585 244.21653221 150.5234375 244.30078125 C128.56984031 266.34475036 96.86467366 279.38216385 65.75292969 279.4777832 C64.80853027 279.4843544 63.86413086 279.4909256 62.89111328 279.49769592 C59.78417864 279.5173046 56.67729223 279.52906835 53.5703125 279.5390625 C52.49935585 279.54313803 51.4283992 279.54721355 50.32498932 279.55141258 C44.64797666 279.57222798 38.97098779 279.58654505 33.29394531 279.59594727 C27.48469204 279.60695729 21.67582752 279.64130773 15.86671066 279.68111897 C11.35369245 279.70750963 6.84076341 279.71565917 2.32767487 279.71922874 C0.18945971 279.72404281 -1.94875291 279.73550473 -4.08689117 279.75426674 C-43.89993389 280.08170532 -77.80476704 265.61060758 -106.4140625 237.80078125 C-122.07748822 222.14805459 -132.36383504 203.07978694 -139.4765625 182.30078125 C-139.78335938 181.44355469 -140.09015625 180.58632812 -140.40625 179.703125 C-147.63586907 157.97700171 -148.67510776 131.2895862 -142.4765625 109.30078125 C-142.198125 108.10582031 -141.9196875 106.91085938 -141.6328125 105.6796875 C-133.12781813 70.44994789 -110.06025115 39.32623362 -79.16015625 20.43359375 C-72.79215366 16.67514591 -66.17588456 13.42062796 -59.4765625 10.30078125 C-58.17138672 9.68396484 -58.17138672 9.68396484 -56.83984375 9.0546875 C-49.82606802 5.99434732 -42.31796754 4.34804305 -34.84567261 2.80158997 C-33.35559287 2.48660042 -31.86973793 2.15009989 -30.39161682 1.7830658 C-20.3951656 -0.43534644 -10.18105806 -0.00791546 0 0 Z " fill="#BFFAFE" transform="translate(249.4765625,44.69921875)"/>
<path d="M0 0 C1.44403931 -0.00600229 2.88807546 -0.01281166 4.33210754 -0.02035522 C8.21700607 -0.03785644 12.10181622 -0.04270401 15.98675036 -0.0439868 C18.42711512 -0.04541882 20.86745815 -0.04970819 23.30781746 -0.05498123 C31.85952274 -0.07343392 40.4111661 -0.08165845 48.96289062 -0.08007812 C56.87162109 -0.07888026 64.78007712 -0.09992505 72.68873829 -0.13156545 C79.52836624 -0.15793089 86.36790574 -0.16843693 93.20758396 -0.16716731 C97.27037402 -0.16666328 101.33292012 -0.17202903 105.39565849 -0.19352341 C156.25572716 -0.44388882 200.79905593 13.9159948 237.75317383 49.89648438 C247.53618532 59.7309854 256.17245268 70.71116586 262.79125977 82.91552734 C265.39295369 87.60608129 267.65877952 89.63822537 272.32250977 92.12255859 C275.69608617 94.33461856 276.73742703 97.62240586 278.10375977 101.29052734 C278.54848633 102.46486328 278.99321289 103.63919922 279.45141602 104.84912109 C283.10375977 114.71488014 283.10375977 114.71488014 283.10375977 117.29052734 C284.05250977 117.22865234 285.00125977 117.16677734 285.97875977 117.10302734 C294.57122682 117.1551029 301.93642028 120.40111517 308.10375977 126.29052734 C315.53614464 134.56524917 316.42471225 141.90465341 316.47485352 152.77490234 C316.48388199 153.98567444 316.49291046 155.19644653 316.50221252 156.44390869 C316.51669849 159.00245702 316.52559764 161.56104225 316.52929688 164.11962891 C316.54117631 168.01317546 316.59036874 171.90512819 316.64086914 175.79833984 C316.65033608 178.29051965 316.65756982 180.78270915 316.66235352 183.27490234 C316.68188583 184.4293988 316.70141815 185.58389526 316.72154236 186.77337646 C316.67168208 195.80605935 314.48426548 202.31843313 308.60375977 209.22802734 C298.07276661 217.91609669 287.15983756 218.88026235 274.10375977 218.29052734 C274.13518066 219.37769043 274.13518066 219.37769043 274.16723633 220.48681641 C274.25146672 223.83790662 274.30275481 227.18877305 274.35375977 230.54052734 C274.38727539 231.68005859 274.42079102 232.81958984 274.45532227 233.99365234 C274.59869291 246.6102687 271.20149651 257.65217675 262.51391602 267.00146484 C252.00527477 276.74359344 239.77388888 278.59269815 226.00585938 278.54589844 C224.01515281 278.55145572 222.02444625 278.55701734 220.03374016 278.56274247 C217.90768639 278.56706503 215.7816795 278.56661741 213.65562248 278.56492233 C209.21294088 278.56207486 204.77041643 278.57649328 200.32777405 278.59390259 C187.69965951 278.64079683 175.07155721 278.66487382 162.44335938 278.67138672 C155.45796496 278.6751413 148.47275002 278.69319723 141.48743254 278.72648108 C137.07529565 278.74664788 132.66362303 278.74908953 128.251459 278.7382009 C124.85829129 278.73497352 121.46538168 278.75770043 118.07226562 278.77636719 C116.24937012 278.76410851 116.24937012 278.76410851 114.38964844 278.75160217 C107.50628771 278.81901032 103.86698349 279.64905778 98.10375977 283.29052734 C94.43055725 283.80519104 94.43055725 283.80519104 90.45947266 283.82397461 C89.73002945 283.83259018 89.00058624 283.84120575 88.2490387 283.8500824 C85.8577948 283.87263003 83.46773367 283.86602469 81.07641602 283.85693359 C79.40164343 283.86217437 77.7268738 283.86845251 76.05210876 283.87571716 C72.54940866 283.8861008 69.04711531 283.88158975 65.54443359 283.86694336 C61.07102422 283.84976257 56.5989002 283.87325179 52.12563419 283.90843296 C48.66901755 283.93046711 45.21270559 283.92895098 41.75604057 283.92066765 C40.10752389 283.91985133 38.45898411 283.92665326 36.81053352 283.94143867 C21.32600221 284.05904302 21.32600221 284.05904302 15.49461365 279.7283783 C11.57707572 275.67846643 9.90453281 271.24862696 9.60375977 265.66552734 C9.86851877 260.5292027 11.89624463 257.36851991 15.63500977 253.84912109 C20.3433493 249.79856429 23.15318148 249.13481912 29.18041992 249.09765625 C29.909133 249.08947876 30.63784607 249.08130127 31.38864136 249.07287598 C33.80669331 249.04801275 36.22468633 249.03149963 38.64282227 249.01708984 C39.46947765 249.01176617 40.29613304 249.00644249 41.14783859 249.00095749 C45.52717919 248.97421606 49.90649124 248.95484833 54.28588867 248.94042969 C57.90398569 248.92711293 61.52151571 248.89930442 65.1394043 248.85839844 C69.51194671 248.80896012 73.88397638 248.78429433 78.25678635 248.77720261 C79.91930102 248.77050712 81.58180503 248.75532945 83.2441597 248.7313118 C98.9282441 248.51772201 98.9282441 248.51772201 104.76791382 252.92221069 C106.10375977 254.29052734 106.10375977 254.29052734 108.10375977 257.29052734 C110.43148244 257.74647095 110.43148244 257.74647095 113.18777466 257.67147827 C114.26438858 257.67993774 115.3410025 257.68839722 116.45024109 257.69711304 C117.63672745 257.69104034 118.82321381 257.68496765 120.0456543 257.67871094 C121.29130661 257.6839679 122.53695892 257.68922485 123.82035828 257.69464111 C127.24441199 257.70560894 130.66792425 257.70299907 134.09194803 257.69350386 C137.67701867 257.6859162 141.26206592 257.69295131 144.84713745 257.69766235 C150.87477778 257.70312676 156.90230802 257.69591484 162.92993164 257.68164062 C169.88608844 257.66535708 176.84198086 257.67056836 183.79813111 257.68711984 C189.77449073 257.70076838 195.75077107 257.70263664 201.72714126 257.69480383 C205.29439675 257.69014003 208.86152839 257.68946574 212.42877579 257.6994133 C216.41445279 257.70974974 220.39983836 257.69539061 224.38549805 257.67871094 C225.55983902 257.68478363 226.73417999 257.69085632 227.94410706 257.69711304 C234.41234696 257.64707531 239.20382019 256.96561172 245.10375977 254.29052734 C246.09375977 253.96052734 247.08375977 253.63052734 248.10375977 253.29052734 C249.2054496 251.592835 249.2054496 251.592835 250.10375977 249.29052734 C250.60520508 248.34306641 251.10665039 247.39560547 251.62329102 246.41943359 C253.89310877 241.12641176 253.67340259 235.52700869 253.79125977 229.85302734 C253.82541992 228.73992187 253.85958008 227.62681641 253.89477539 226.47998047 C253.97678405 223.75026352 254.04608814 221.02084874 254.10375977 218.29052734 C250.80375977 218.29052734 247.50375977 218.29052734 244.10375977 218.29052734 C244.36930664 217.28634766 244.63485352 216.28216797 244.90844727 215.24755859 C245.26555022 213.86613399 245.62230167 212.48461849 245.97875977 211.10302734 C246.23979492 210.12172852 246.23979492 210.12172852 246.50610352 209.12060547 C249.45985224 197.57910582 250.4951389 186.18624335 250.47875977 174.29052734 C250.47821594 173.61721375 250.47767212 172.94390015 250.47711182 172.25018311 C250.40898339 153.78737882 246.75748458 137.44690086 240.10375977 120.29052734 C239.77375977 119.30052734 239.44375977 118.31052734 239.10375977 117.29052734 C242.73375977 117.29052734 246.36375977 117.29052734 250.10375977 117.29052734 C249.60875977 116.01177734 249.11375977 114.73302734 248.60375977 113.41552734 C247.37687066 109.85144226 247.05509054 107.27464981 247.41625977 103.54052734 C247.62935493 96.28407631 243.19457711 90.94356025 239.10375977 85.29052734 C238.69738281 84.72865723 238.29100586 84.16678711 237.87231445 83.58789062 C230.54329651 73.5830626 222.75373328 64.13829868 213.10375977 56.29052734 C212.16918945 55.51837891 211.23461914 54.74623047 210.27172852 53.95068359 C177.1477833 27.16340234 138.63619436 20.73464471 97.08249426 20.95341396 C93.57511721 20.96879948 90.06773838 20.96728379 86.56033325 20.96807861 C80.68933742 20.97173258 74.81846123 20.98650881 68.94750977 21.00927734 C61.45453861 21.03828071 53.96166251 21.04852151 46.46864128 21.05295944 C39.95499369 21.05696157 33.44136598 21.0694444 26.92773294 21.08330631 C24.86538521 21.0873641 22.80303812 21.09030992 20.74068832 21.0931015 C16.8784402 21.10003649 13.01627405 21.11369878 9.15405273 21.12939453 C7.47674324 21.13107132 7.47674324 21.13107132 5.76554871 21.13278198 C-5.23913373 21.19151008 -16.30149153 21.56723129 -27.08374023 23.91552734 C-27.87780273 24.08810059 -28.67186523 24.26067383 -29.48999023 24.43847656 C-54.59844592 30.21638694 -78.18187324 42.6761152 -96.81030273 60.47802734 C-98.89624023 62.29052734 -98.89624023 62.29052734 -101.04467773 63.29052734 C-103.44054543 64.58449808 -103.74247357 65.8557726 -104.89624023 68.29052734 C-106.34228828 69.88372705 -107.82687095 71.44222617 -109.33374023 72.97802734 C-113.76334077 77.75631363 -117.42417537 82.75777014 -120.95874023 88.22802734 C-121.43561279 88.96174561 -121.91248535 89.69546387 -122.40380859 90.45141602 C-125.38059665 95.15277794 -127.00318027 98.22302 -126.70874023 103.91552734 C-126.59785814 109.25802809 -128.75314008 113.46855199 -130.89624023 118.29052734 C-127.26624023 118.29052734 -123.63624023 118.29052734 -119.89624023 118.29052734 C-120.28811523 119.56927734 -120.67999023 120.84802734 -121.08374023 122.16552734 C-121.68920524 124.20680936 -122.29314298 126.24854452 -122.89624023 128.29052734 C-123.09443359 128.94472656 -123.29262695 129.59892578 -123.49682617 130.27294922 C-132.4048133 159.80353669 -131.45039905 188.5324386 -123.89624023 218.29052734 C-130.5122389 218.41834668 -137.12791387 218.5053014 -143.74487305 218.56518555 C-145.99108784 218.59017573 -148.23722259 218.62417969 -150.4831543 218.66772461 C-177.37372559 219.17565762 -177.37372559 219.17565762 -188.89624023 209.29052734 C-190.66186523 206.81787109 -190.66186523 206.81787109 -192.14624023 204.22802734 C-192.64639648 203.37080078 -193.14655273 202.51357422 -193.66186523 201.63037109 C-195.61492619 197.92820808 -196.03097432 195.07848697 -196.07324219 190.95214844 C-196.08607742 189.86026215 -196.09891266 188.76837585 -196.11213684 187.6434021 C-196.11952377 186.46218781 -196.12691071 185.28097351 -196.13452148 184.06396484 C-196.14259323 182.84657623 -196.15066498 181.62918762 -196.15898132 180.37490845 C-196.17282356 177.79422429 -196.18354508 175.21352181 -196.19140625 172.6328125 C-196.20858108 168.7019535 -196.25246365 164.77194374 -196.29663086 160.84130859 C-196.30676124 158.33220019 -196.31527626 155.82308463 -196.32202148 153.31396484 C-196.33952957 152.14489594 -196.35703766 150.97582703 -196.37507629 149.77133179 C-196.34868067 139.74926279 -193.7985136 132.46868243 -186.95874023 125.08349609 C-179.86724696 118.91873205 -172.07399057 117.11057145 -162.89624023 117.29052734 C-162.6584082 116.41654297 -162.6584082 116.41654297 -162.41577148 115.52490234 C-156.73039942 95.54757287 -156.73039942 95.54757287 -149.89624023 90.29052734 C-149.26975586 90.06107422 -148.64327148 89.83162109 -147.99780273 89.59521484 C-144.86580228 87.65081307 -143.56048948 84.68858764 -141.83374023 81.54052734 C-120.71501758 44.85343057 -83.60316502 17.09208768 -42.91967773 5.89208984 C-28.60560894 2.12389623 -14.8419986 -0.01251166 0 0 Z " fill="#025F80" transform="translate(195.896240234375,10.70947265625)"/>
<path d="M0 0 C17.49780699 14.15133181 29.98585166 35.56978311 32.77587891 58.01782227 C33.73394649 70.61430896 33.30488542 82.84436861 29.77587891 95.01782227 C29.59798828 96.80639648 29.59798828 96.80639648 29.41650391 98.63110352 C27.46170035 102.66637658 26.67372414 102.83284813 22.59619141 104.31079102 C20.37402399 104.9753047 18.14120177 105.60485585 15.90087891 106.20532227 C14.7279126 106.54063965 13.55494629 106.87595703 12.34643555 107.22143555 C-10.5960679 113.63379115 -33.06887228 116.42547481 -56.84912109 116.33032227 C-57.81967438 116.32816711 -58.79022766 116.32601196 -59.79019165 116.3237915 C-82.1904815 116.24400377 -102.78157768 113.52618087 -124.44824219 107.73364258 C-126.95443864 107.08736571 -129.4598217 106.53447525 -131.99365234 106.01000977 C-135.76174993 105.1416938 -138.96175475 104.18493219 -142.22412109 102.01782227 C-144.70480876 97.4708157 -145.56992456 93.11940754 -146.22412109 88.01782227 C-146.40587891 87.11547852 -146.58763672 86.21313477 -146.77490234 85.28344727 C-150.06868175 61.33910304 -145.42191929 37.87181969 -131.48583984 17.96313477 C-116.29094112 -1.82434992 -96.81203275 -14.24189503 -72.43115234 -19.59545898 C-45.83344286 -22.80273455 -21.1594959 -16.48674798 0 0 Z " fill="#0088CC" transform="translate(313.22412109375,384.982177734375)"/>
<path d="M0 0 C1.83255592 -0.00744736 1.83255592 -0.00744736 3.70213318 -0.01504517 C7.01066709 -0.02702249 10.31916597 -0.03457739 13.62771749 -0.03905582 C15.71012851 -0.04201813 17.79253441 -0.04612834 19.87494278 -0.05056 C26.43488147 -0.06418817 32.99480802 -0.07387659 39.55475986 -0.07776189 C47.04414625 -0.08222614 54.53334864 -0.09971761 62.02267921 -0.12876248 C67.86702854 -0.15061534 73.71132702 -0.1604786 79.55571663 -0.16180301 C83.02049222 -0.16283472 86.48509393 -0.16838172 89.94982529 -0.18662262 C111.35358368 -0.28246062 133.26205096 -0.17490413 153.63720703 7.16113281 C154.75168213 7.54849609 155.86615723 7.93585937 157.0144043 8.33496094 C179.65012365 16.49267575 198.18004325 28.95016209 214.94970703 46.16113281 C215.80242187 46.94617188 215.80242187 46.94617188 216.67236328 47.74707031 C222.6371939 53.36800413 227.24345719 59.72445727 231.81298828 66.48632812 C232.82852228 67.98258312 233.8717083 69.4599838 234.91845703 70.93457031 C238.34558689 76.05909939 239.45697369 79.53419506 239.02783203 85.68847656 C238.90085501 89.7072992 239.94933803 93.28470293 240.94970703 97.16113281 C237.31970703 97.16113281 233.68970703 97.16113281 229.94970703 97.16113281 C229.47662109 96.22914062 229.00353516 95.29714844 228.51611328 94.33691406 C210.7459227 59.85336044 183.03361387 33.52177608 145.82080078 21.37207031 C144.53145771 20.96517333 143.24116552 20.5612649 141.94970703 20.16113281 C140.93005859 19.84402344 139.91041016 19.52691406 138.85986328 19.20019531 C125.09620921 15.21130274 111.73396271 14.8356024 97.51611328 14.82519531 C95.43122775 14.81875148 93.34634309 14.812022 91.26145935 14.80502319 C86.90174265 14.79309627 82.54210489 14.78933736 78.18237305 14.79052734 C72.65578721 14.79072966 67.1297206 14.76349688 61.60325718 14.72898293 C57.29692872 14.70649624 52.99072062 14.70269647 48.68433952 14.7037468 C46.65022948 14.70142074 44.61611454 14.69277128 42.58206367 14.67708206 C7.48613871 14.43182042 -25.23171699 25.03737613 -52.05029297 48.16113281 C-53.48501953 49.37736328 -53.48501953 49.37736328 -54.94873047 50.61816406 C-80.28117175 72.60133478 -95.88095137 105.11426279 -100.05029297 138.16113281 C-102.04225653 178.49839493 -92.37958281 216.39804236 -65.05029297 247.16113281 C-45.71077166 268.43254374 -20.29306198 283.97110218 7.94970703 290.16113281 C8.73001282 290.33695892 9.5103186 290.51278503 10.31427002 290.69393921 C20.55874653 292.6968389 30.85147656 292.51468139 41.24658203 292.57519531 C43.2921016 292.59393606 45.33761367 292.61351157 47.38311768 292.63388062 C52.72916212 292.68490092 58.07523154 292.72468653 63.42138672 292.76202393 C68.89182563 292.80225373 74.36216333 292.85325888 79.83251953 292.90332031 C90.53817729 292.99972254 101.2438926 293.08424001 111.94970703 293.16113281 C111.94970703 293.49113281 111.94970703 293.82113281 111.94970703 294.16113281 C96.07574196 294.23154999 80.20181981 294.28427984 64.32773685 294.31656933 C56.95533556 294.33196758 49.58303192 294.35292039 42.21069336 294.38745117 C35.77689412 294.41757135 29.34316568 294.43675882 22.90929788 294.4433983 C19.50991343 294.44727274 16.11073132 294.45622645 12.71141243 294.47832298 C-1.55451083 294.56072381 -15.11441335 294.42473218 -29.05029297 291.16113281 C-30.45074368 290.85604259 -31.85158573 290.55274384 -33.25279236 290.25114441 C-58.30041143 284.71058164 -79.48945637 271.6771541 -98.05029297 254.16113281 C-98.78763672 253.48824219 -99.52498047 252.81535156 -100.28466797 252.12207031 C-120.31815044 233.15419861 -132.53584317 206.87434692 -138.05029297 180.16113281 C-138.27587891 179.08347656 -138.50146484 178.00582031 -138.73388672 176.89550781 C-143.30919969 150.76889306 -139.8226825 122.36769418 -129.05029297 98.16113281 C-132.68029297 98.16113281 -136.31029297 98.16113281 -140.05029297 98.16113281 C-139.55529297 96.71738281 -139.06029297 95.27363281 -138.55029297 93.78613281 C-137.39045893 90.0442248 -136.98653997 87.23232903 -137.36279297 83.34863281 C-137.73644057 70.76260842 -121.79681541 54.88371246 -113.74560547 45.91503906 C-110.70209233 42.76633538 -107.41169602 39.96230202 -104.05029297 37.16113281 C-102.86693359 36.12859375 -102.86693359 36.12859375 -101.65966797 35.07519531 C-72.62025092 10.29605202 -37.68061068 0.0376689 0 0 Z " fill="#96EFF1" transform="translate(205.05029296875,30.8388671875)"/>
<path d="M0 0 C4.80501052 2.05929022 6.85585569 4.68677977 8.98828125 9.4375 C15 24.66409266 15 24.66409266 15 28 C15.94875 27.938125 16.8975 27.87625 17.875 27.8125 C26.46746705 27.86457556 33.83266051 31.11058783 40 37 C47.43238487 45.27472183 48.32095249 52.61412607 48.37109375 63.484375 C48.38012222 64.69514709 48.3891507 65.90591919 48.39845276 67.15338135 C48.41293872 69.71192967 48.42183787 72.2705149 48.42553711 74.82910156 C48.43741655 78.72264812 48.48660897 82.61460085 48.53710938 86.5078125 C48.54657632 88.99999231 48.55381005 91.4921818 48.55859375 93.984375 C48.57812607 95.13887146 48.59765839 96.29336792 48.61778259 97.48284912 C48.56792232 106.51553201 46.38050571 113.02790579 40.5 119.9375 C29.96900685 128.62556935 19.05607779 129.58973501 6 129 C6.0314209 130.08716309 6.0314209 130.08716309 6.06347656 131.19628906 C6.14770696 134.54737928 6.19899504 137.89824571 6.25 141.25 C6.28351563 142.38953125 6.31703125 143.5290625 6.3515625 144.703125 C6.49493314 157.31974135 3.09773674 168.3616494 -5.58984375 177.7109375 C-16.098485 187.45306609 -28.32987089 189.30217081 -42.09790039 189.25537109 C-44.08860696 189.26092838 -46.07931351 189.26649 -48.0700196 189.27221513 C-50.19607338 189.27653769 -52.32208027 189.27609007 -54.44813728 189.27439499 C-58.89081888 189.27154751 -63.33334334 189.28596593 -67.77598572 189.30337524 C-80.40410025 189.35026949 -93.03220256 189.37434648 -105.66040039 189.38085938 C-112.6457948 189.38461395 -119.63100975 189.40266989 -126.61632723 189.43595374 C-131.02846412 189.45612054 -135.44013674 189.45856219 -139.85230076 189.44767356 C-143.24546848 189.44444617 -146.63837808 189.46717308 -150.03149414 189.48583984 C-151.85438965 189.47358116 -151.85438965 189.47358116 -153.71411133 189.46107483 C-160.59747206 189.52848298 -164.23677628 190.35853044 -170 194 C-173.67320251 194.5146637 -173.67320251 194.5146637 -177.64428711 194.53344727 C-178.37373032 194.54206284 -179.10317352 194.55067841 -179.85472107 194.55955505 C-182.24596496 194.58210268 -184.6360261 194.57549734 -187.02734375 194.56640625 C-188.70211634 194.57164703 -190.37688597 194.57792517 -192.051651 194.58518982 C-195.55435111 194.59557345 -199.05664445 194.59106241 -202.55932617 194.57641602 C-207.03273555 194.55923523 -211.50485956 194.58272445 -215.97812557 194.61790562 C-219.43474222 194.63993976 -222.89105418 194.63842363 -226.34771919 194.6301403 C-227.99623588 194.62932399 -229.64477566 194.63612591 -231.29322624 194.65091133 C-246.77775755 194.76851568 -246.77775755 194.76851568 -252.60914612 190.43785095 C-256.52668404 186.38793909 -258.19922696 181.95809962 -258.5 176.375 C-258.235241 171.23867536 -256.20751513 168.07799256 -252.46875 164.55859375 C-247.76041046 160.50803694 -244.95057829 159.84429178 -238.92333984 159.80712891 C-237.83027023 159.79486267 -237.83027023 159.79486267 -236.71511841 159.78234863 C-234.29706645 159.75748541 -231.87907344 159.74097228 -229.4609375 159.7265625 C-228.63428211 159.72123882 -227.80762672 159.71591515 -226.95592117 159.71043015 C-222.57658058 159.68368872 -218.19726852 159.66432098 -213.81787109 159.64990234 C-210.19977407 159.63658559 -206.58224406 159.60877707 -202.96435547 159.56787109 C-198.59181305 159.51843277 -194.21978338 159.49376699 -189.84697342 159.48667526 C-188.18445874 159.47997977 -186.52195473 159.4648021 -184.85960007 159.44078445 C-169.17551566 159.22719467 -169.17551566 159.22719467 -163.33584595 163.63168335 C-162 165 -162 165 -160 168 C-157.67227733 168.4559436 -157.67227733 168.4559436 -154.91598511 168.38095093 C-153.30106422 168.39364014 -153.30106422 168.39364014 -151.65351868 168.40658569 C-150.46703232 168.400513 -149.28054596 168.39444031 -148.05810547 168.38818359 C-146.81245316 168.39344055 -145.56680084 168.39869751 -144.28340149 168.40411377 C-140.85934778 168.4150816 -137.43583551 168.41247173 -134.01181173 168.40297651 C-130.4267411 168.39538885 -126.84169385 168.40242396 -123.25662231 168.40713501 C-117.22898198 168.41259942 -111.20145175 168.4053875 -105.17382812 168.39111328 C-98.21767132 168.37482974 -91.2617789 168.38004102 -84.30562866 168.3965925 C-78.32926903 168.41024104 -72.35298869 168.41210929 -66.3766185 168.40427649 C-62.80936302 168.39961269 -59.24223138 168.3989384 -55.67498398 168.40888596 C-51.68930698 168.4192224 -47.7039214 168.40486327 -43.71826172 168.38818359 C-42.54392075 168.39425629 -41.36957977 168.40032898 -40.15965271 168.40658569 C-33.69141281 168.35654797 -28.89993958 167.67508437 -23 165 C-22.01 164.67 -21.02 164.34 -20 164 C-18.89831016 162.30230766 -18.89831016 162.30230766 -18 160 C-17.49855469 159.05253906 -16.99710938 158.10507812 -16.48046875 157.12890625 C-14.21065099 151.83588441 -14.43035718 146.23648134 -14.3125 140.5625 C-14.27833984 139.44939453 -14.24417969 138.33628906 -14.20898438 137.18945312 C-14.12697571 134.45973617 -14.05767163 131.7303214 -14 129 C-17.3 129 -20.6 129 -24 129 C-23.73445312 127.99582031 -23.46890625 126.99164063 -23.1953125 125.95703125 C-22.83820954 124.57560665 -22.4814581 123.19409114 -22.125 121.8125 C-21.95097656 121.15830078 -21.77695312 120.50410156 -21.59765625 119.83007812 C-18.64390752 108.28857847 -17.60862087 96.895716 -17.625 85 C-17.62554382 84.3266864 -17.62608765 83.6533728 -17.62664795 82.95965576 C-17.69477638 64.49685148 -21.34627519 48.15637352 -28 31 C-28.33 30.01 -28.66 29.02 -29 28 C-25.37 28 -21.74 28 -18 28 C-18.495 26.68 -18.99 25.36 -19.5 24 C-21.3980283 18.24264749 -21.94450951 13.67611027 -19.875 7.8125 C-14.49944079 -0.25083881 -9.46134788 -1.36461748 0 0 Z " fill="#FD6466" transform="translate(464,100)"/>
<path d="M0 0 C4.004793 2.0023965 6.6587028 4.17998877 9 8 C11.65147851 15.95443553 9.26598143 21.65154179 6 29 C9.63 29 13.26 29 17 29 C16.608125 30.27875 16.21625 31.5575 15.8125 32.875 C15.207035 34.91628202 14.60309725 36.95801718 14 39 C13.80180664 39.65419922 13.60361328 40.30839844 13.39941406 40.98242188 C4.49142693 70.51300934 5.44584118 99.24191125 13 129 C6.38400134 129.12781934 -0.23167364 129.21477405 -6.84863281 129.2746582 C-9.0948476 129.29964839 -11.34098236 129.33365235 -13.58691406 129.37719727 C-40.47748536 129.88513028 -40.47748536 129.88513028 -52 120 C-53.765625 117.52734375 -53.765625 117.52734375 -55.25 114.9375 C-56.00023437 113.65166016 -56.00023437 113.65166016 -56.765625 112.33984375 C-58.71868596 108.63768073 -59.13473408 105.78795962 -59.17700195 101.66162109 C-59.18983719 100.5697348 -59.20267242 99.47784851 -59.21589661 98.35287476 C-59.22328354 97.17166046 -59.23067047 95.99044617 -59.23828125 94.7734375 C-59.246353 93.55604889 -59.25442474 92.33866028 -59.26274109 91.0843811 C-59.27658333 88.50369694 -59.28730485 85.92299447 -59.29516602 83.34228516 C-59.31234085 79.41142615 -59.35622341 75.4814164 -59.40039062 71.55078125 C-59.41052101 69.04167284 -59.41903603 66.53255729 -59.42578125 64.0234375 C-59.44328934 62.85436859 -59.46079742 61.68529968 -59.47883606 60.48080444 C-59.45244043 50.45873545 -56.90227337 43.17815508 -50.0625 35.79296875 C-42.97100673 29.62820471 -35.17775034 27.82004411 -26 28 C-25.76216797 27.12601563 -25.76216797 27.12601563 -25.51953125 26.234375 C-19.87059017 6.38505716 -19.87059017 6.38505716 -13 1 C-9.05349633 -0.97325184 -4.30133287 -0.44349901 0 0 Z " fill="#FE6466" transform="translate(59,100)"/>
<path d="M0 0 C6.6 0 13.2 0 20 0 C20.10907014 4.08407062 20.18783937 8.1651588 20.25 12.25 C20.28351563 13.38953125 20.31703125 14.5290625 20.3515625 15.703125 C20.49493314 28.31974135 17.09773674 39.3616494 8.41015625 48.7109375 C-2.098485 58.45306609 -14.32987089 60.30217081 -28.09790039 60.25537109 C-30.08860696 60.26092838 -32.07931351 60.26649 -34.0700196 60.27221513 C-36.19607338 60.27653769 -38.32208027 60.27609007 -40.44813728 60.27439499 C-44.89081888 60.27154751 -49.33334334 60.28596593 -53.77598572 60.30337524 C-66.40410025 60.35026949 -79.03220256 60.37434648 -91.66040039 60.38085938 C-98.6457948 60.38461395 -105.63100975 60.40266989 -112.61632723 60.43595374 C-117.02846412 60.45612054 -121.44013674 60.45856219 -125.85230076 60.44767356 C-129.24546848 60.44444617 -132.63837808 60.46717308 -136.03149414 60.48583984 C-137.85438965 60.47358116 -137.85438965 60.47358116 -139.71411133 60.46107483 C-146.59747206 60.52848298 -150.23677628 61.35853044 -156 65 C-159.67320251 65.5146637 -159.67320251 65.5146637 -163.64428711 65.53344727 C-164.37373032 65.54206284 -165.10317352 65.55067841 -165.85472107 65.55955505 C-168.24596496 65.58210268 -170.6360261 65.57549734 -173.02734375 65.56640625 C-174.70211634 65.57164703 -176.37688597 65.57792517 -178.051651 65.58518982 C-181.55435111 65.59557345 -185.05664445 65.59106241 -188.55932617 65.57641602 C-193.03273555 65.55923523 -197.50485956 65.58272445 -201.97812557 65.61790562 C-205.43474222 65.63993976 -208.89105418 65.63842363 -212.34771919 65.6301403 C-213.99623588 65.62932399 -215.64477566 65.63612591 -217.29322624 65.65091133 C-232.77775755 65.76851568 -232.77775755 65.76851568 -238.60914612 61.43785095 C-242.52668404 57.38793909 -244.19922696 52.95809962 -244.5 47.375 C-244.235241 42.23867536 -242.20751513 39.07799256 -238.46875 35.55859375 C-233.76041046 31.50803694 -230.95057829 30.84429178 -224.92333984 30.80712891 C-224.19462677 30.79895142 -223.4659137 30.79077393 -222.71511841 30.78234863 C-220.29706645 30.75748541 -217.87907344 30.74097228 -215.4609375 30.7265625 C-214.63428211 30.72123882 -213.80762672 30.71591515 -212.95592117 30.71043015 C-208.57658058 30.68368872 -204.19726852 30.66432098 -199.81787109 30.64990234 C-196.19977407 30.63658559 -192.58224406 30.60877707 -188.96435547 30.56787109 C-184.59181305 30.51843277 -180.21978338 30.49376699 -175.84697342 30.48667526 C-174.18445874 30.47997977 -172.52195473 30.4648021 -170.85960007 30.44078445 C-155.17551566 30.22719467 -155.17551566 30.22719467 -149.33584595 34.63168335 C-148 36 -148 36 -146 39 C-143.67227733 39.4559436 -143.67227733 39.4559436 -140.91598511 39.38095093 C-139.83937119 39.3894104 -138.76275726 39.39786987 -137.65351868 39.40658569 C-136.46703232 39.400513 -135.28054596 39.39444031 -134.05810547 39.38818359 C-132.81245316 39.39344055 -131.56680084 39.39869751 -130.28340149 39.40411377 C-126.85934778 39.4150816 -123.43583551 39.41247173 -120.01181173 39.40297651 C-116.4267411 39.39538885 -112.84169385 39.40242396 -109.25662231 39.40713501 C-103.22898198 39.41259942 -97.20145175 39.4053875 -91.17382812 39.39111328 C-84.21767132 39.37482974 -77.2617789 39.38004102 -70.30562866 39.3965925 C-64.32926903 39.41024104 -58.35298869 39.41210929 -52.3766185 39.40427649 C-48.80936302 39.39961269 -45.24223138 39.3989384 -41.67498398 39.40888596 C-37.68930698 39.4192224 -33.7039214 39.40486327 -29.71826172 39.38818359 C-27.95675026 39.39729263 -27.95675026 39.39729263 -26.15965271 39.40658569 C-19.69141281 39.35654797 -14.89993958 38.67508437 -9 36 C-8.01 35.67 -7.02 35.34 -6 35 C-4.89831016 33.30230766 -4.89831016 33.30230766 -4 31 C-3.49855469 30.05253906 -2.99710938 29.10507812 -2.48046875 28.12890625 C-0.21065099 22.83588441 -0.43035718 17.23648134 -0.3125 11.5625 C-0.27833984 10.44939453 -0.24417969 9.33628906 -0.20898438 8.18945312 C-0.12698298 5.45997823 -0.06180344 2.73000692 0 0 Z " fill="#036081" transform="translate(450,229)"/>
<path d="M0 0 C1.83255592 -0.00744736 1.83255592 -0.00744736 3.70213318 -0.01504517 C7.01066709 -0.02702249 10.31916597 -0.03457739 13.62771749 -0.03905582 C15.71012851 -0.04201813 17.79253441 -0.04612834 19.87494278 -0.05056 C26.43488147 -0.06418817 32.99480802 -0.07387659 39.55475986 -0.07776189 C47.04414625 -0.08222614 54.53334864 -0.09971761 62.02267921 -0.12876248 C67.86702854 -0.15061534 73.71132702 -0.1604786 79.55571663 -0.16180301 C83.02049222 -0.16283472 86.48509393 -0.16838172 89.94982529 -0.18662262 C111.35358368 -0.28246062 133.26205096 -0.17490413 153.63720703 7.16113281 C154.75168213 7.54849609 155.86615723 7.93585937 157.0144043 8.33496094 C179.65012365 16.49267575 198.18004325 28.95016209 214.94970703 46.16113281 C215.80242187 46.94617188 215.80242187 46.94617188 216.67236328 47.74707031 C222.6371939 53.36800413 227.24345719 59.72445727 231.81298828 66.48632812 C232.82852228 67.98258312 233.8717083 69.4599838 234.91845703 70.93457031 C238.34558689 76.05909939 239.45697369 79.53419506 239.02783203 85.68847656 C238.90085501 89.7072992 239.94933803 93.28470293 240.94970703 97.16113281 C237.31970703 97.16113281 233.68970703 97.16113281 229.94970703 97.16113281 C229.47662109 96.22914062 229.00353516 95.29714844 228.51611328 94.33691406 C210.7459227 59.85336044 183.03361387 33.52177608 145.82080078 21.37207031 C144.53145771 20.96517333 143.24116552 20.5612649 141.94970703 20.16113281 C140.93005859 19.84402344 139.91041016 19.52691406 138.85986328 19.20019531 C127.79155361 15.9924499 116.96039815 14.86259208 105.46459961 14.88647461 C104.17342224 14.88136368 102.88224487 14.87625275 101.55194092 14.87098694 C98.04539409 14.85772562 94.53895589 14.857004 91.03238893 14.85955024 C88.08578132 14.86062932 85.13919486 14.8557126 82.19259185 14.85094482 C75.22839436 14.83989288 68.26425082 14.83938701 61.30004883 14.84545898 C54.16210372 14.85148773 47.02435628 14.83920585 39.88644487 14.81788892 C33.71782278 14.80015731 27.54926294 14.79428981 21.38061637 14.79752666 C17.71428427 14.79932225 14.048093 14.79687948 10.38178444 14.78281212 C-28.1207049 14.64785286 -61.03142671 23.13126443 -91.05029297 48.16113281 C-91.56188965 48.58620117 -92.07348633 49.01126953 -92.60058594 49.44921875 C-108.60378301 62.94002047 -119.78597525 80.03424597 -128.05029297 99.16113281 C-132.01029297 98.83113281 -135.97029297 98.50113281 -140.05029297 98.16113281 C-139.55529297 96.71738281 -139.06029297 95.27363281 -138.55029297 93.78613281 C-137.39045893 90.0442248 -136.98653997 87.23232903 -137.36279297 83.34863281 C-137.73644057 70.76260842 -121.79681541 54.88371246 -113.74560547 45.91503906 C-110.70209233 42.76633538 -107.41169602 39.96230202 -104.05029297 37.16113281 C-102.86693359 36.12859375 -102.86693359 36.12859375 -101.65966797 35.07519531 C-72.62025092 10.29605202 -37.68061068 0.0376689 0 0 Z " fill="#31D5CD" transform="translate(205.05029296875,30.8388671875)"/>
<path d="M0 0 C1.39516768 0.01508903 2.79035134 0.02876991 4.18554688 0.04101562 C7.56161584 0.07606132 10.93684276 0.12519492 14.3125 0.1875 C11.21741694 2.25088871 8.87608627 2.9609403 5.3125 3.9375 C-11.35681657 8.98264792 -25.24598574 19.7031079 -33.8515625 34.921875 C-34.57605207 36.27682153 -35.29226141 37.636229 -36 39 C-36.32572998 39.61496338 -36.65145996 40.22992676 -36.98706055 40.86352539 C-43.37348242 53.8307024 -43.16073245 67.26255668 -43.07861328 81.38916016 C-43.06253452 84.68043469 -43.078524 87.97048151 -43.09765625 91.26171875 C-43.11351336 105.23262896 -42.63931299 117.84556901 -35.9375 130.4375 C-35.58824463 131.11224365 -35.23898926 131.7869873 -34.87915039 132.48217773 C-32.02199219 137.85948272 -28.77364916 142.65781964 -24.6875 147.1875 C-24.18089844 147.785625 -23.67429688 148.38375 -23.15234375 149 C-13.79503848 159.29993307 0.63295304 166.25075341 14.3125 168.1875 C14.3125 168.8475 14.3125 169.5075 14.3125 170.1875 C-9.41748123 170.85981068 -31.8237044 169.66096554 -50.1875 152.8125 C-58.9013587 144.40215935 -65.55221927 135.66025322 -69.6875 124.1875 C-70.03167969 123.31480469 -70.37585938 122.44210938 -70.73046875 121.54296875 C-74.5169863 110.56072035 -74.29484827 99.6116482 -74.20898438 88.11083984 C-74.18754246 84.69426493 -74.20886767 81.27979237 -74.234375 77.86328125 C-74.24961973 66.35497456 -74.01734701 55.99927224 -69.6875 45.1875 C-69.4105127 44.46449707 -69.13352539 43.74149414 -68.84814453 42.99658203 C-62.14182281 26.78429503 -50.16329252 14.70898601 -34.6875 6.8125 C-34.059646 6.49063721 -33.43179199 6.16877441 -32.78491211 5.8371582 C-21.99050684 0.6200233 -11.88604518 -0.22614349 0 0 Z " fill="#016DBC" transform="translate(193.6875,99.8125)"/>
<path d="M0 0 C1.31478333 0.00212242 1.31478333 0.00212242 2.65612793 0.00428772 C5.42703821 0.00983857 8.19786457 0.02238164 10.96875 0.03515625 C12.85937382 0.04017761 14.74999893 0.0447394 16.640625 0.04882812 C21.25003183 0.05979185 25.85937673 0.077022 30.46875 0.09765625 C26.63501377 2.16497546 22.92071172 2.7733771 18.65625 3.41015625 C-4.68665508 7.27692558 -26.66865144 18.69600393 -44.53125 34.09765625 C-45.96597656 35.31388672 -45.96597656 35.31388672 -47.4296875 36.5546875 C-67.39062316 53.87653388 -81.97101957 78.54487059 -88.53125 104.09765625 C-91.28809557 102.81617872 -93.5176344 101.43050582 -95.81640625 99.4453125 C-96.42484375 98.92122803 -97.03328125 98.39714355 -97.66015625 97.85717773 C-98.29824219 97.29716064 -98.93632813 96.73714355 -99.59375 96.16015625 C-100.25117187 95.58402588 -100.90859375 95.00789551 -101.5859375 94.41430664 C-105.79948236 90.69114886 -109.97715447 86.93179812 -114.03125 83.03515625 C-115.37703125 81.74931641 -115.37703125 81.74931641 -116.75 80.4375 C-118.53125 78.09765625 -118.53125 78.09765625 -118.49609375 76.12890625 C-103.48689202 44.53058682 -74.16683097 19.7464824 -41.63671875 7.58984375 C-28.02093074 2.78068541 -14.43034139 -0.08933982 0 0 Z " fill="#96EFF1" transform="translate(193.53125,344.90234375)"/>
<path d="M0 0 C3.64555558 -0.11755481 7.29061474 -0.18769812 10.9375 -0.25 C12.46987305 -0.30027344 12.46987305 -0.30027344 14.03320312 -0.3515625 C22.58291116 -0.46082394 29.55707028 1.37950328 36.1875 7 C44.64768504 15.39765175 46.52326233 23.3804377 46.69140625 34.9765625 C46.69991814 38.36756189 46.67285331 41.75494896 46.61743164 45.14550781 C46.56252025 48.62371707 46.55590488 52.09952626 46.55664062 55.578125 C46.54189494 57.81512463 46.52440989 60.05210824 46.50390625 62.2890625 C46.49889854 63.82852036 46.49889854 63.82852036 46.49378967 65.39907837 C46.28275513 76.22196926 43.93125895 85.29665079 36 93 C30.87477539 96.56722444 25.87518058 99.14010188 19.55078125 99.09765625 C18.70322266 99.09443359 17.85566406 99.09121094 16.98242188 99.08789062 C16.10134766 99.07951172 15.22027344 99.07113281 14.3125 99.0625 C13.41982422 99.05798828 12.52714844 99.05347656 11.60742188 99.04882812 C9.40488013 99.03704983 7.20247401 99.02060164 5 99 C5.78523303 93.08055103 6.98125229 87.32398973 8.28125 81.5 C13.48793135 56.14572561 10.39808004 29.15204784 1.171875 5.17578125 C0 2 0 2 0 0 Z " fill="#FE393A" transform="translate(436,129)"/>
<path d="M0 0 C-1.05757749 2.7094128 -2.16854795 5.37273176 -3.3671875 8.0234375 C-9.07063395 20.70104646 -12.33909659 32.28143826 -12.5 46.25 C-12.51853027 47.24370605 -12.53706055 48.23741211 -12.55615234 49.26123047 C-12.4796906 58.29421097 -10.232167 66.64374248 -4.8125 74 C-3.02828011 76.45725474 -1.97229993 78.08310021 -1 81 C0.84131793 82.06169706 0.84131793 82.06169706 3 83 C4.38533975 83.94332473 5.75980995 84.90274288 7.125 85.875 C17.15559858 92.54583498 27.27582508 94.13901985 39 96 C39 102.6 39 109.2 39 116 C19.6719462 116.67817733 1.57469782 112.90609677 -16.93896484 107.55419922 C-18.84010732 107.04299412 -20.7739708 106.65791712 -22.70703125 106.28515625 C-25.99457468 105.54973239 -28.25761734 104.96222208 -31 103 C-33.26932286 98.46697142 -34.21751943 93.98345784 -35 89 C-35.185625 88.09636719 -35.37125 87.19273437 -35.5625 86.26171875 C-38.78133408 62.26416112 -34.20918095 38.94216152 -20.28125 18.9609375 C-5.67282322 0 -5.67282322 0 0 0 Z " fill="#026EBC" transform="translate(202,384)"/>
<path d="M0 0 C1.09306961 -0.01226624 1.09306961 -0.01226624 2.20822144 -0.02478027 C4.62627339 -0.0496435 7.04426641 -0.06615662 9.46240234 -0.08056641 C10.28905773 -0.08589008 11.11571312 -0.09121376 11.96741867 -0.09669876 C16.34675927 -0.12344019 20.72607132 -0.14280792 25.10546875 -0.15722656 C28.72356577 -0.17054332 32.34109579 -0.19835183 35.95898438 -0.23925781 C40.33152679 -0.28869613 44.70355646 -0.31336192 49.07636642 -0.32045364 C50.7388811 -0.32714913 52.40138511 -0.3423268 54.06373978 -0.36634445 C69.75346131 -0.58001101 69.75346131 -0.58001101 75.53866577 3.8062439 C79.5388558 7.81207632 81.14660918 11.45913031 81.48583984 17.13037109 C81.24646084 22.37277125 79.64205801 26.44963391 75.92333984 30.19287109 C70.81256781 33.58308665 67.54428898 34.69668326 61.27905273 34.72631836 C60.54960953 34.73493393 59.82016632 34.7435495 59.06861877 34.75242615 C56.67737488 34.77497378 54.28731375 34.76836844 51.89599609 34.75927734 C50.22122351 34.76451812 48.54645387 34.77079626 46.87168884 34.77806091 C43.36898873 34.78844455 39.86669539 34.7839335 36.36401367 34.76928711 C31.8906043 34.75210632 27.41848028 34.77559554 22.94521427 34.81077671 C19.48859762 34.83281086 16.03228567 34.83129473 12.57562065 34.8230114 C10.92710396 34.82219508 9.27856419 34.82899701 7.6301136 34.84378242 C-7.85441771 34.96138677 -7.85441771 34.96138677 -13.68580627 30.63072205 C-17.6033442 26.58081018 -19.27588711 22.15097071 -19.57666016 16.56787109 C-19.31190115 11.43154645 -17.28417529 8.27086366 -13.54541016 4.75146484 C-8.83707062 0.70090804 -6.02723844 0.03716287 0 0 Z " fill="#FE885A" transform="translate(225.07666015625,259.80712890625)"/>
<path d="M0 0 C1.29035156 0.02255859 2.58070312 0.04511719 3.91015625 0.06835938 C7.0663424 0.12680727 10.22003505 0.20869725 13.375 0.3125 C13.375 0.9725 13.375 1.6325 13.375 2.3125 C11.58203125 3.609375 11.58203125 3.609375 9.1875 5.0625 C2.1036689 9.67032117 -2.05290399 15.306315 -4.625 23.3125 C-5.17334594 27.37282035 -5.18680326 31.37598152 -5.15625 35.46875 C-5.16199036 37.18221619 -5.16199036 37.18221619 -5.16784668 38.93029785 C-5.17055613 41.33391202 -5.16326313 43.73755615 -5.14648438 46.14111328 C-5.12506273 49.80178109 -5.14632102 53.46048635 -5.171875 57.12109375 C-5.16923155 59.46615013 -5.16410623 61.81120529 -5.15625 64.15625 C-5.16434692 65.24087524 -5.17244385 66.32550049 -5.18078613 67.44299316 C-5.06578435 76.84999187 -2.229651 85.37934541 4.375 92.3125 C6.93160518 94.20238265 9.60298362 95.76411428 12.375 97.3125 C13.365 97.9725 14.355 98.6325 15.375 99.3125 C11.3226188 99.46301702 7.2713616 99.57070666 3.21679688 99.64208984 C1.84346109 99.67190316 0.47030947 99.71257124 -0.90234375 99.76513672 C-10.7883341 100.13369338 -18.3767684 99.05354888 -26.625 93.3125 C-29.09165013 90.81559514 -30.97582416 88.40946717 -32.625 85.3125 C-33.13546875 84.37188721 -33.6459375 83.43127441 -34.171875 82.4621582 C-36.44170089 77.08349072 -36.07312814 71.44130762 -36.05859375 65.6953125 C-36.0638356 64.48358368 -36.06907745 63.27185486 -36.07447815 62.02340698 C-36.08088621 59.46662154 -36.07957718 56.90980658 -36.07104492 54.35302734 C-36.06254358 50.45746909 -36.09130282 46.56338204 -36.12304688 42.66796875 C-36.12465935 40.17708377 -36.12408047 37.68619621 -36.12109375 35.1953125 C-36.13232773 34.03879181 -36.14356171 32.88227112 -36.15513611 31.69070435 C-36.07157319 21.91101731 -33.62925582 14.34720932 -26.73583984 7.24487305 C-18.7745172 -0.04333754 -10.36649969 -0.34697347 0 0 Z " fill="#FE393A" transform="translate(35.625,128.6875)"/>
<path d="M0 0 C4.55032325 2.25563234 7.30949074 5.54855488 9.0078125 10.33984375 C9.5419375 14.65814144 9.47390224 18.92797545 9.3984375 23.2734375 C9.39277771 24.50651138 9.38711792 25.73958527 9.38128662 27.01002502 C9.35896799 30.93286614 9.30877673 34.85478054 9.2578125 38.77734375 C9.23548051 41.44334601 9.21949219 44.10933957 9.203125 46.77539062 C9.15911774 53.29718905 9.09224918 59.81845017 9.0078125 66.33984375 C11.3178125 66.33984375 13.6278125 66.33984375 16.0078125 66.33984375 C16.0078125 66.66984375 16.0078125 66.99984375 16.0078125 67.33984375 C1.4878125 67.33984375 -13.0321875 67.33984375 -27.9921875 67.33984375 C-27.9921875 67.00984375 -27.9921875 66.67984375 -27.9921875 66.33984375 C-25.6821875 66.33984375 -23.3721875 66.33984375 -20.9921875 66.33984375 C-21.00106995 65.63906708 -21.00995239 64.93829041 -21.019104 64.21627808 C-21.09941853 57.59596088 -21.16023701 50.97578062 -21.19943619 44.35508537 C-21.22026696 40.95168057 -21.24850008 37.54868 -21.29394531 34.14550781 C-21.345921 30.22856569 -21.36517019 26.3117844 -21.3828125 22.39453125 C-21.40345764 21.17869354 -21.42410278 19.96285583 -21.44537354 18.71017456 C-21.44707384 12.29032543 -21.42417891 8.16253691 -16.9921875 3.33984375 C-11.81446797 -1.23581537 -6.51973567 -2.16046143 0 0 Z " fill="#FCF4F4" transform="translate(261.9921875,433.66015625)"/>
<path d="M0 0 C5.9410458 0.40225831 9.54940074 2.16968373 14.3046875 5.71484375 C18.5325782 8.70323236 23.27383376 8.92047487 28.25 8.08984375 C31.82189304 6.41471354 35.01782295 4.34186603 38.25 2.08984375 C41.78430656 -0.26636062 43.08571287 -0.40007238 47.25 0.08984375 C52.82894737 3.24773849 52.82894737 3.24773849 54.25 6.08984375 C54.63651057 11.21110883 54.19705474 13.91157503 51.25 18.08984375 C43.5954806 25.19761176 33.54348127 29.13044923 23.125 29.52734375 C12.37233104 28.98797039 1.72162167 25.0461925 -5.875 17.21484375 C-8.4419843 12.93653658 -8.53337119 11.02508228 -7.75 6.08984375 C-5.3125 3.15234375 -5.3125 3.15234375 -2.75 1.08984375 C-1.75 0.08984375 -1.75 0.08984375 0 0 Z " fill="#2FD4CD" transform="translate(232.75,209.91015625)"/>
<path d="M0 0 C4.77565237 3.52028787 7.56858612 5.94962962 8.625 12 C8.44374061 15.53791471 7.37848469 17.15582256 4.8125 19.5625 C2.42701221 21.30261534 0.89885384 22.07236711 -2 22.8125 C-5.85468092 21.86849651 -8.0654377 19.98817124 -11.125 17.53125 C-15.85843775 13.9429988 -21.27597016 13.34059374 -27.0625 14.0625 C-31.19664678 15.46515694 -34.50318979 17.35520699 -38.0625 19.8125 C-41.06299607 21.72771026 -42.01857988 22.06101118 -45.75 22.1875 C-49.82572491 20.80329154 -51.58277623 19.59422779 -54.0625 16.0625 C-54.77829809 12.02800169 -54.99037718 9.75430613 -53.0234375 6.16796875 C-49.25773983 1.33988152 -44.53501282 -1.37049656 -39.0625 -3.9375 C-38.12277344 -4.41896484 -38.12277344 -4.41896484 -37.1640625 -4.91015625 C-25.27186925 -10.30429454 -10.59894064 -6.71324064 0 0 Z " fill="#2FD4CD" transform="translate(221.0625,146.9375)"/>
<path d="M0 0 C5.65719602 4.79260569 5.65719602 4.79260569 6.47265625 8.6640625 C6.79218102 12.8334711 6.40296249 14.34247074 3.6953125 17.69140625 C-0.10523609 20.67755157 -2.08957468 21.17350089 -6.9296875 20.75390625 C-9.59765625 19.2578125 -9.59765625 19.2578125 -12.1171875 17.31640625 C-18.00834842 12.83695209 -22.60805296 11.96091022 -29.9296875 12.75390625 C-34.06928135 14.13615818 -37.25212549 16.17313881 -40.5546875 19.00390625 C-42.9296875 20.75390625 -42.9296875 20.75390625 -45.8671875 21.31640625 C-50.14978505 20.5298067 -51.82638644 18.78503752 -54.9296875 15.75390625 C-56.53095824 12.55136478 -56.33670357 10.30076061 -55.9296875 6.75390625 C-52.078811 -0.53750745 -43.90416148 -4.69435485 -36.3125 -7.0625 C-23.27132122 -9.96731085 -10.75004817 -8.27857408 0 0 Z " fill="#2FD4CD" transform="translate(338.9296875,148.24609375)"/>
<path d="M0 0 C18.48 0 36.96 0 56 0 C58 5 58 5 58 19 C38.2 19 18.4 19 -2 19 C-2 6 -2 6 0 0 Z " fill="#0088CB" transform="translate(228,325)"/>
<path d="M0 0 C-0.68359375 5.859375 -0.68359375 5.859375 -1 8 C-1.06670898 8.66290039 -1.13341797 9.32580078 -1.20214844 10.00878906 C-2 12 -2 12 -4.18286133 13.125 C-5.1395874 13.41375 -6.09631348 13.7025 -7.08203125 14 C-8.68437622 14.49197876 -8.68437622 14.49197876 -10.3190918 14.99389648 C-11.4719165 15.32591064 -12.62474121 15.6579248 -13.8125 16 C-14.98272705 16.34812744 -16.1529541 16.69625488 -17.35864258 17.05493164 C-27.459501 19.99147553 -37.6228742 22.29519553 -48 24 C-49.72863281 24.29390625 -49.72863281 24.29390625 -51.4921875 24.59375 C-55.66627516 25.07716327 -59.74163444 25.10886996 -63.9375 25.0625 C-66.598125 25.041875 -69.25875 25.02125 -72 25 C-72 19.39 -72 13.78 -72 8 C-70.43636719 7.96261719 -68.87273437 7.92523438 -67.26171875 7.88671875 C-46.66039033 7.30118029 -25.76360372 6.45179722 -5.84375 0.76953125 C-3 0 -3 0 0 0 Z " fill="#0370BD" transform="translate(343,475)"/>
<path d="M0 0 C5.81369997 2.63180481 9.23596352 6.41485032 11.79296875 12.265625 C12.83040837 18.68327477 11.49516616 23.96475143 7.79296875 29.265625 C3.51007472 33.43870123 -0.58603328 35.32655652 -6.51953125 35.703125 C-11.7383581 35.57265433 -15.30704456 33.65384873 -19.20703125 30.265625 C-23.17123141 25.18331711 -24.64630111 21.03072138 -24.54296875 14.67578125 C-23.83527992 9.59852532 -21.1663293 6.02047456 -17.41015625 2.65625 C-11.85523346 -1.29885502 -6.494334 -2.16094654 0 0 Z " fill="#FAF3F4" transform="translate(262.20703125,385.734375)"/>
<path d="M0 0 C0.70744354 0.00141495 1.41488708 0.0028299 2.14376831 0.00428772 C4.40578419 0.00989025 6.66770148 0.02244307 8.9296875 0.03515625 C10.46223815 0.04017093 11.99479036 0.04473389 13.52734375 0.04882812 C17.28649638 0.05986048 21.04557522 0.07712673 24.8046875 0.09765625 C24.18851563 0.39414062 23.57234375 0.690625 22.9375 0.99609375 C20.7263581 2.0592252 20.7263581 2.0592252 18.6796875 3.72265625 C16.8046875 5.09765625 16.8046875 5.09765625 14.8046875 5.09765625 C12.3685271 11.36206871 10.17385733 17.34106825 12.4609375 24.01171875 C14.86283094 28.87762357 17.98611658 30.78103562 22.8046875 33.09765625 C22.8046875 33.42765625 22.8046875 33.75765625 22.8046875 34.09765625 C18.67894944 34.22227194 14.55395619 34.31246529 10.42675781 34.37231445 C9.02617281 34.39729037 7.62571589 34.43128442 6.22558594 34.47485352 C-7.76932791 34.89909306 -7.76932791 34.89909306 -13.74609375 30.54663086 C-17.73966325 26.55373413 -19.39460521 22.05453531 -19.6953125 16.47265625 C-19.4305535 11.33633161 -17.40282763 8.17564881 -13.6640625 4.65625 C-8.89723159 0.55537341 -6.10207202 -0.04566819 0 0 Z " fill="#FE6566" transform="translate(225.1953125,259.90234375)"/>
<path d="M0 0 C3.3 0 6.6 0 10 0 C10.10851234 3.83410271 10.18757134 7.66509683 10.25 11.5 C10.28351563 12.57765625 10.31703125 13.6553125 10.3515625 14.765625 C10.45365579 23.13727517 8.95913039 28.30108701 3.75 34.8125 C-2.60317781 39.86616417 -9.00340226 40.43647902 -16.8125 40.34057617 C-17.75976456 40.34101425 -18.70702911 40.34145233 -19.68299866 40.34190369 C-22.78888137 40.33982713 -25.89421253 40.31654961 -29 40.29296875 C-31.16332708 40.28736877 -33.32665798 40.28310057 -35.48999023 40.28010559 C-41.16504546 40.26868853 -46.83986787 40.23924832 -52.51483154 40.20599365 C-58.31324108 40.17522505 -64.11168849 40.16158576 -69.91015625 40.14648438 C-81.27353941 40.11437565 -92.63675029 40.0632173 -104 40 C-100.2575895 37.54116383 -96.64541702 37.82068692 -92.3449707 37.99511719 C-90.75678573 38.04111252 -89.16859471 38.0868995 -87.58039856 38.13250732 C-86.32116546 38.17406071 -86.32116546 38.17406071 -85.0364933 38.21645355 C-80.57531161 38.35387763 -76.11286737 38.42542227 -71.65039062 38.5078125 C-65.97814532 38.61559616 -60.30862083 38.74287842 -54.63891602 38.94628906 C-50.05001024 39.10919225 -45.46419175 39.20253537 -40.87270164 39.25040436 C-39.1294931 39.2811542 -37.38653012 39.33701578 -35.64498329 39.41909027 C-26.48258089 40.12602306 -26.48258089 40.12602306 -18.39054108 36.64013481 C-15.12946482 32.82107813 -13.05362872 28.55291077 -11 24 C-10.16237652 22.38488712 -9.3222885 20.77104117 -8.4765625 19.16015625 C-7.84877784 17.79910893 -7.23101635 16.43337839 -6.625 15.0625 C-6.30917969 14.37349609 -5.99335938 13.68449219 -5.66796875 12.97460938 C-3.70935034 8.67946486 -1.84648002 4.34432569 0 0 Z " fill="#3AD4CF" transform="translate(440,229)"/>
<path d="M0 0 C2 3 2 3 3.25 5.5 C5.49780191 8.71114558 7.3317295 9.65967039 11 11 C16.10577208 11.66185934 19.80807616 10.74837772 24.265625 8.35546875 C27.20257273 6.06015149 27.92031931 3.50896225 29 0 C29.33 0 29.66 0 30 0 C30 8.91 30 17.82 30 27 C32.31 27 34.62 27 37 27 C37 27.33 37 27.66 37 28 C22.48 28 7.96 28 -7 28 C-7 27.67 -7 27.34 -7 27 C-4.69 27 -2.38 27 0 27 C0 18.09 0 9.18 0 0 Z " fill="#83DCE9" transform="translate(241,473)"/>
<path d="M0 0 C7.92 0 15.84 0 24 0 C23.34 6.27 22.68 12.54 22 19 C14.08 19 6.16 19 -2 19 C-2.25 6.75 -2.25 6.75 0 0 Z " fill="#0069A3" transform="translate(228,325)"/>
</svg>
